<svg xmlns="http://www.w3.org/2000/svg" viewBox="0 0 64 64" width="100px" height="100px"><linearGradient id="kh3MLHc8XdUqTeU89xj78a" x1="50" x2="50" y1="41.125" y2="50.394" gradientUnits="userSpaceOnUse" spreadMethod="reflect"><stop offset="0" stop-color="#6dc7ff"/><stop offset="1" stop-color="#e6abff"/></linearGradient><path fill="url(#kh3MLHc8XdUqTeU89xj78a)" d="M54,42v6c0,1.105-0.895,2-2,2h-6L54,42z"/><linearGradient id="kh3MLHc8XdUqTeU89xj78b" x1="32" x2="32" y1="9.25" y2="54.866" gradientUnits="userSpaceOnUse" spreadMethod="reflect"><stop offset="0" stop-color="#1a6dff"/><stop offset="1" stop-color="#c822ff"/></linearGradient><path fill="url(#kh3MLHc8XdUqTeU89xj78b)" d="M55,20h-7v-3c0-1.654-1.346-3-3-3H26.236c-0.382,0-0.725-0.212-0.895-0.553l-0.895-1.789 C23.936,10.636,22.907,10,21.764,10H9c-1.654,0-3,1.346-3,3v35c0,3.309,2.691,6,6,6h40c3.309,0,6-2.691,6-6V23 C58,21.346,56.654,20,55,20z M8,48V13c0-0.552,0.448-1,1-1h12.764c0.382,0,0.725,0.212,0.895,0.553l0.895,1.789 C24.064,15.364,25.093,16,26.236,16H45c0.552,0,1,0.448,1,1v3H19c-1.654,0-3,1.346-3,3v5h-3c-1.103,0-2,0.897-2,2v21.858 C9.28,51.411,8,49.859,8,48z M16,46h-3v-4h3V46z M16,40h-3v-4h3V40z M16,34h-3v-4h3V34z M13,51.858V48h3 C16,49.859,14.72,51.411,13,51.858z M56,48c0,2.206-1.794,4-4,4H16.469C17.42,50.938,18,49.535,18,48V23c0-0.552,0.448-1,1-1h36 c0.552,0,1,0.448,1,1V48z"/><linearGradient id="kh3MLHc8XdUqTeU89xj78c" x1="50" x2="50" y1="9.25" y2="54.866" gradientUnits="userSpaceOnUse" spreadMethod="reflect"><stop offset="0" stop-color="#1a6dff"/><stop offset="1" stop-color="#c822ff"/></linearGradient><path fill="url(#kh3MLHc8XdUqTeU89xj78c)" d="M46 26H54V28H46z"/><linearGradient id="kh3MLHc8XdUqTeU89xj78d" x1="50" x2="50" y1="9.25" y2="54.866" gradientUnits="userSpaceOnUse" spreadMethod="reflect"><stop offset="0" stop-color="#1a6dff"/><stop offset="1" stop-color="#c822ff"/></linearGradient><path fill="url(#kh3MLHc8XdUqTeU89xj78d)" d="M46 30H54V32H46z"/></svg>